<svg width="48" height="48" viewBox="0 0 48 48" fill="none" xmlns="http://www.w3.org/2000/svg">
<g id="arrow-down--48">
<g id="inner">
<path id="Vector" d="M23.1597 32.1449L18.8471 24.95C19.0101 25.0595 19.2083 25.125 19.4307 25.125H28.5693C28.7917 25.125 28.9899 25.0595 29.1529 24.95L24.8403 32.1449C24.4566 32.785 23.5434 32.785 23.1597 32.1449ZM18.5281 23.5115C18.4013 23.723 18.3576 23.9536 18.3812 24.1726L14.0212 16.8986C13.6166 16.2238 14.1015 15.375 14.8614 15.375L23.9989 15.375C23.6506 15.3753 23.3023 15.5465 23.0974 15.8884L18.5281 23.5115ZM33.9788 16.8986L29.6188 24.1727C29.6424 23.9536 29.5987 23.723 29.4719 23.5115L24.9026 15.8884C24.6977 15.5465 24.3494 15.3753 24.0011 15.375L33.1386 15.375C33.8985 15.375 34.3834 16.2238 33.9788 16.8986Z" fill="#FF3E00" stroke="#333333" stroke-width="0.75"/>
</g>
</g>
</svg>
